<svg version="1.1" viewBox="0.0 0.0 1347.0 1099.0" fill="none" stroke="none" stroke-linecap="square" stroke-miterlimit="10" width="1347" height="1099" xmlns:xlink="http://www.w3.org/1999/xlink" xmlns="http://www.w3.org/2000/svg"><path fill="#ffffff" d="M0 0L1347.0 0L1347.0 1099.0L0 1099.0L0 0Z" fill-rule="nonzero"/><path fill="#000000" d="M616.64594 58.228874C635.5186 56.044773 654.5014 54.95 673.5 54.95L673.5 549.5Z" fill-rule="nonzero"/><path fill="#9900ff" d="M570.2552 65.847015C585.58923 62.57367 601.0703 60.031414 616.64594 58.228874L673.5 549.5Z" fill-rule="nonzero"/><path fill="#ffff00" d="M570.0951 65.88122C570.14844 65.86981 570.2018 65.858406 570.2552 65.847015L673.5 549.5Z" fill-rule="nonzero"/><path fill="#ff00ff" d="M502.20453 85.56298C524.3363 77.39146 547.0244 70.81407 570.0951 65.88122L673.5 549.5Z" fill-rule="nonzero"/><path fill="#0000ff" d="M186.3396 634.67303C145.2009 399.3739 278.12228 168.29893 502.20453 85.56298L673.5 549.5Z" fill-rule="nonzero"/><path fill="#00ffff" d="M190.02336 653.5675C188.67297 647.2938 187.44481 640.9945 186.3396 634.67303L673.5 549.5Z" fill-rule="nonzero"/><path fill="#ff9900" d="M195.93593 678.00006C193.75838 669.9073 191.78688 661.76044 190.02336 653.5675L673.5 549.5Z" fill-rule="nonzero"/><path fill="#00ff00" d="M202.72047 700.98047C200.2737 693.3763 198.01152 685.71387 195.93593 678.00006L673.5 549.5Z" fill-rule="nonzero"/><path fill="#ff0000" d="M673.5 54.95C926.8 54.95 1139.1526 246.33618 1165.3898 498.27368C1191.6271 750.2112 1023.2662 981.24554 775.40155 1033.4377C527.5369 1085.63 280.30618 942.10565 202.72047 700.98047L673.5 549.5Z" fill-rule="nonzero"/><path fill="#000000" d="M56.41875 59.637497L62.1375 59.637497Q63.840626 59.637497 64.66875 59.778122Q65.5125 59.918747 66.16875 60.371872Q66.825 60.809372 67.2625 61.559372Q67.7 62.309372 67.7 63.231247Q67.7 64.24687 67.15312 65.09062Q66.62187 65.91875 65.7 66.34062Q66.99687 66.71562 67.7 67.6375Q68.40312 68.55937 68.40312 69.79375Q68.40312 70.77812 67.95 71.7Q67.49687 72.62187 66.71562 73.18437Q65.93437 73.73125 64.77812 73.85625Q64.05937 73.93437 61.29375 73.95L56.41875 73.95L56.41875 59.637497ZM59.309376 62.012497L59.309376 65.325L61.2 65.325Q62.8875 65.325 63.29375 65.27812Q64.04375 65.18437 64.46562 64.7625Q64.8875 64.34062 64.8875 63.653122Q64.8875 62.981247 64.5125 62.574997Q64.15312 62.153122 63.434376 62.059372Q63.0125 62.012497 60.965626 62.012497L59.309376 62.012497ZM59.309376 67.71562L59.309376 71.54375L61.98125 71.54375Q63.54375 71.54375 63.965626 71.45Q64.60625 71.325 65.0125 70.87187Q65.41875 70.41875 65.41875 69.66875Q65.41875 69.0125 65.10625 68.575Q64.79375 68.12187 64.2 67.91875Q63.60625 67.71562 61.6375 67.71562L59.309376 67.71562ZM69.66875 69.29375L72.48125 69.0125Q72.74687 70.43437 73.5125 71.10625Q74.29375 71.7625 75.60625 71.7625Q77.0125 71.7625 77.71562 71.16875Q78.41875 70.575 78.41875 69.79375Q78.41875 69.27812 78.12187 68.93437Q77.825 68.575 77.09062 68.30937Q76.575 68.12187 74.77812 67.68437Q72.45 67.10625 71.5125 66.2625Q70.18437 65.075 70.18437 63.387497Q70.18437 62.293747 70.80937 61.340622Q71.43437 60.387497 72.59062 59.887497Q73.7625 59.387497 75.41875 59.387497Q78.10625 59.387497 79.46562 60.574997Q80.84062 61.746872 80.90312 63.731247L78.0125 63.856247Q77.825 62.746872 77.21562 62.262497Q76.60625 61.778122 75.3875 61.778122Q74.12187 61.778122 73.41875 62.293747Q72.95 62.637497 72.95 63.184372Q72.95 63.699997 73.3875 64.05937Q73.93437 64.5125 76.04375 65.0125Q78.15312 65.5125 79.15312 66.04375Q80.16875 66.575 80.73125 67.49687Q81.30937 68.41875 81.30937 69.77812Q81.30937 71.0125 80.62187 72.09062Q79.95 73.15312 78.7 73.68437Q77.45 74.2 75.575 74.2Q72.87187 74.2 71.40312 72.95Q69.95 71.7 69.66875 69.29375ZM83.30937 63.574997L85.87187 63.574997L85.87187 65.10625Q86.37187 64.325 87.21562 63.840622Q88.05937 63.340622 89.10625 63.340622Q90.90312 63.340622 92.15312 64.7625Q93.41875 66.16875 93.41875 68.7Q93.41875 71.30937 92.15312 72.74687Q90.8875 74.18437 89.075 74.18437Q88.21562 74.18437 87.5125 73.84062Q86.825 73.49687 86.05937 72.66875L86.05937 77.90312L83.30937 77.90312L83.30937 63.574997ZM86.02812 68.59062Q86.02812 70.34062 86.71562 71.18437Q87.40312 72.0125 88.40312 72.0125Q89.35625 72.0125 89.99687 71.24687Q90.6375 70.46562 90.6375 68.73125Q90.6375 67.09062 89.98125 66.30937Q89.325 65.5125 88.35625 65.5125Q87.35625 65.5125 86.68437 66.29375Q86.02812 67.05937 86.02812 68.59062ZM95.3875 73.95L95.3875 59.637497L98.1375 59.637497L98.1375 73.95L95.3875 73.95ZM101.3875 62.168747L101.3875 59.637497L104.1375 59.637497L104.1375 62.168747L101.3875 62.168747ZM101.3875 73.95L101.3875 63.574997L104.1375 63.574997L104.1375 73.95L101.3875 73.95ZM116.825 73.95L114.075 73.95L114.075 68.65312Q114.075 66.98125 113.90312 66.49687Q113.73125 65.99687 113.325 65.73125Q112.93437 65.45 112.37187 65.45Q111.66875 65.45 111.09062 65.84062Q110.52812 66.23125 110.30937 66.87187Q110.10625 67.5125 110.10625 69.24687L110.10625 73.95L107.37187 73.95L107.37187 63.574997L109.91875 63.574997L109.91875 65.10625Q111.27812 63.340622 113.34062 63.340622Q114.24687 63.340622 114.99687 63.668747Q115.74687 63.996872 116.12187 64.5125Q116.5125 65.0125 116.66875 65.66875Q116.825 66.30937 116.825 67.49687L116.825 73.95ZM125.3875 70.65312L128.12187 71.10625Q127.60625 72.60625 126.46562 73.40312Q125.325 74.18437 123.62187 74.18437Q120.90312 74.18437 119.60625 72.41875Q118.59062 70.99687 118.59062 68.84062Q118.59062 66.2625 119.93437 64.80937Q121.27812 63.340622 123.34062 63.340622Q125.65312 63.340622 126.98125 64.87187Q128.325 66.40312 128.27812 69.55937L121.40312 69.55937Q121.43437 70.77812 122.05937 71.46562Q122.7 72.1375 123.6375 72.1375Q124.29375 72.1375 124.73125 71.79375Q125.16875 71.43437 125.3875 70.65312ZM125.54375 67.87187Q125.5125 66.68437 124.91875 66.075Q124.34062 65.45 123.5125 65.45Q122.60625 65.45 122.02812 66.09062Q121.43437 66.74687 121.45 67.87187L125.54375 67.87187Z" fill-rule="nonzero"/><path fill="#9e9e9e" d="M62.825 100.95L60.075 100.95L60.075 90.60625Q58.575 92.0125 56.528126 92.68437L56.528126 90.2Q57.60625 89.84062 58.85625 88.87187Q60.121876 87.8875 60.590626 86.575L62.825 86.575L62.825 100.95ZM67.3875 100.95L67.3875 98.2L70.1375 98.2L70.1375 100.95L67.3875 100.95ZM75.15312 93.23125Q74.09062 92.77812 73.60625 91.99687Q73.12187 91.2 73.12187 90.2625Q73.12187 88.66875 74.23125 87.62187Q75.35625 86.575 77.41875 86.575Q79.46562 86.575 80.59062 87.62187Q81.71562 88.66875 81.71562 90.2625Q81.71562 91.2625 81.2 92.04375Q80.68437 92.80937 79.74687 93.23125Q80.93437 93.7 81.54375 94.62187Q82.16875 95.54375 82.16875 96.74687Q82.16875 98.71562 80.90312 99.96562Q79.65312 101.2 77.54375 101.2Q75.59062 101.2 74.29375 100.18437Q72.7625 98.96562 72.7625 96.85625Q72.7625 95.7 73.34062 94.73125Q73.91875 93.74687 75.15312 93.23125ZM75.71562 90.46562Q75.71562 91.27812 76.18437 91.74687Q76.65312 92.2 77.41875 92.2Q78.2 92.2 78.66875 91.74687Q79.1375 91.27812 79.1375 90.45Q79.1375 89.68437 78.66875 89.21562Q78.21562 88.74687 77.45 88.74687Q76.65312 88.74687 76.18437 89.21562Q75.71562 89.68437 75.71562 90.46562ZM75.46562 96.59062Q75.46562 97.73125 76.04375 98.37187Q76.62187 98.99687 77.49687 98.99687Q78.34062 98.99687 78.90312 98.3875Q79.46562 97.77812 79.46562 96.62187Q79.46562 95.62187 78.8875 95.0125Q78.325 94.40312 77.46562 94.40312Q76.45 94.40312 75.95 95.09062Q75.46562 95.77812 75.46562 96.59062ZM83.825 90.16875Q83.825 88.24687 84.66875 87.325Q85.5125 86.3875 86.95 86.3875Q88.45 86.3875 89.29375 87.30937Q90.1375 88.23125 90.1375 90.16875Q90.1375 92.09062 89.29375 93.02812Q88.45 93.95 86.99687 93.95Q85.5125 93.95 84.66875 93.02812Q83.825 92.10625 83.825 90.16875ZM85.96562 90.15312Q85.96562 91.54375 86.27812 92.02812Q86.52812 92.37187 86.95 92.37187Q87.3875 92.37187 87.6375 92.02812Q87.95 91.54375 87.95 90.15312Q87.95 88.74687 87.6375 88.27812Q87.3875 87.91875 86.95 87.91875Q86.52812 87.91875 86.27812 88.27812Q85.96562 88.74687 85.96562 90.15312ZM89.04375 101.49687L87.0125 101.49687L94.6375 86.3875L96.60625 86.3875L89.04375 101.49687ZM93.48125 97.73125Q93.48125 95.80937 94.325 94.8875Q95.16875 93.95 96.6375 93.95Q98.10625 93.95 98.95 94.8875Q99.79375 95.80937 99.79375 97.73125Q99.79375 99.66875 98.95 100.60625Q98.10625 101.52812 96.66875 101.52812Q95.16875 101.52812 94.325 100.60625Q93.48125 99.66875 93.48125 97.73125ZM95.62187 97.73125Q95.62187 99.12187 95.93437 99.59062Q96.18437 99.95 96.60625 99.95Q97.05937 99.95 97.29375 99.60625Q97.60625 99.12187 97.60625 97.73125Q97.60625 96.325 97.29375 95.85625Q97.05937 95.49687 96.60625 95.49687Q96.16875 95.49687 95.93437 95.85625Q95.62187 96.325 95.62187 97.73125Z" fill-rule="nonzero"/><path stroke="#757575" stroke-width="1.0" stroke-linecap="butt" d="M54.95 80.45L172.95 80.45L646.44946 80.45688" fill-rule="nonzero"/><path fill="#9e9e9e" d="M648.44946 80.45688C648.44946 79.35231 647.554 78.45688 646.44946 78.45688C645.3449 78.45688 644.44946 79.35231 644.44946 80.45688C644.44946 81.56145 645.3449 82.45688 646.44946 82.45688C647.554 82.45688 648.44946 81.56145 648.44946 80.45688" fill-rule="nonzero"/><path fill="#000000" d="M59.621876 124.95L59.621876 113.05937L55.3875 113.05937L55.3875 110.6375L66.7625 110.6375L66.7625 113.05937L62.5125 113.05937L62.5125 124.95L59.621876 124.95ZM67.74687 119.62187Q67.74687 118.24687 68.41875 116.96562Q69.10625 115.68437 70.34062 115.0125Q71.575 114.34062 73.09062 114.34062Q75.45 114.34062 76.95 115.87187Q78.45 117.40312 78.45 119.73125Q78.45 122.09062 76.93437 123.6375Q75.41875 125.18437 73.10625 125.18437Q71.68437 125.18437 70.3875 124.54375Q69.10625 123.8875 68.41875 122.65312Q67.74687 121.40312 67.74687 119.62187ZM70.55937 119.7625Q70.55937 121.30937 71.29375 122.1375Q72.02812 122.95 73.10625 122.95Q74.18437 122.95 74.90312 122.1375Q75.6375 121.30937 75.6375 119.74687Q75.6375 118.21562 74.90312 117.40312Q74.18437 116.575 73.10625 116.575Q72.02812 116.575 71.29375 117.40312Q70.55937 118.21562 70.55937 119.7625ZM83.0125 124.95L80.2625 124.95L80.2625 114.575L82.825 114.575L82.825 116.05937Q83.46562 115.0125 83.98125 114.68437Q84.5125 114.34062 85.18437 114.34062Q86.12187 114.34062 86.98125 114.85625L86.1375 117.24687Q85.45 116.80937 84.85625 116.80937Q84.27812 116.80937 83.87187 117.12187Q83.46562 117.43437 83.23125 118.27812Q83.0125 119.10625 83.0125 121.74687L83.0125 124.95ZM95.21562 124.95L95.21562 123.40312Q94.65312 124.23125 93.71562 124.71562Q92.79375 125.18437 91.77812 125.18437Q90.73125 125.18437 89.90312 124.73125Q89.075 124.2625 88.7 123.43437Q88.325 122.60625 88.325 121.1375L88.325 114.575L91.075 114.575L91.075 119.34062Q91.075 121.52812 91.21562 122.02812Q91.37187 122.5125 91.7625 122.80937Q92.16875 123.09062 92.79375 123.09062Q93.49687 123.09062 94.04375 122.71562Q94.60625 122.325 94.80937 121.7625Q95.0125 121.18437 95.0125 118.95L95.0125 114.575L97.7625 114.575L97.7625 124.95L95.21562 124.95ZM99.41875 121.99687L102.16875 121.575Q102.35625 122.37187 102.8875 122.79375Q103.41875 123.2 104.3875 123.2Q105.45 123.2 105.99687 122.80937Q106.35625 122.54375 106.35625 122.075Q106.35625 121.7625 106.15312 121.55937Q105.95 121.37187 105.24687 121.2Q101.91875 120.46562 101.02812 119.85625Q99.79375 119.02812 99.79375 117.52812Q99.79375 116.18437 100.85625 115.2625Q101.93437 114.34062 104.16875 114.34062Q106.29375 114.34062 107.325 115.04375Q108.37187 115.73125 108.7625 117.09062L106.16875 117.55937Q105.99687 116.96562 105.52812 116.6375Q105.075 116.30937 104.21562 116.30937Q103.1375 116.30937 102.66875 116.62187Q102.35625 116.84062 102.35625 117.16875Q102.35625 117.46562 102.62187 117.66875Q102.99687 117.95 105.18437 118.45Q107.37187 118.95 108.24687 119.66875Q109.10625 120.40312 109.10625 121.7Q109.10625 123.1375 107.91875 124.16875Q106.73125 125.18437 104.3875 125.18437Q102.27812 125.18437 101.02812 124.325Q99.79375 123.46562 99.41875 121.99687Z" fill-rule="nonzero"/><path fill="#9e9e9e" d="M62.825 151.95L60.075 151.95L60.075 141.60625Q58.575 143.0125 56.528126 143.68437L56.528126 141.2Q57.60625 140.84062 58.85625 139.87187Q60.121876 138.8875 60.590626 137.575L62.825 137.575L62.825 151.95ZM67.3875 151.95L67.3875 149.2L70.1375 149.2L70.1375 151.95L67.3875 151.95ZM72.84062 148.2625L75.575 147.98125Q75.68437 148.91875 76.2625 149.46562Q76.84062 149.99687 77.59062 149.99687Q78.45 149.99687 79.04375 149.30937Q79.65312 148.60625 79.65312 147.2Q79.65312 145.87187 79.05937 145.21562Q78.46562 144.55937 77.5125 144.55937Q76.34062 144.55937 75.40312 145.60625L73.16875 145.27812L74.575 137.825L81.84062 137.825L81.84062 140.40312L76.65312 140.40312L76.23125 142.825Q77.15312 142.37187 78.10625 142.37187Q79.93437 142.37187 81.2 143.7Q82.46562 145.02812 82.46562 147.1375Q82.46562 148.91875 81.45 150.29375Q80.04375 152.2 77.55937 152.2Q75.59062 152.2 74.34062 151.1375Q73.09062 150.05937 72.84062 148.2625ZM83.825 141.16875Q83.825 139.24687 84.66875 138.325Q85.5125 137.3875 86.95 137.3875Q88.45 137.3875 89.29375 138.30937Q90.1375 139.23125 90.1375 141.16875Q90.1375 143.09062 89.29375 144.02812Q88.45 144.95 86.99687 144.95Q85.5125 144.95 84.66875 144.02812Q83.825 143.10625 83.825 141.16875ZM85.96562 141.15312Q85.96562 142.54375 86.27812 143.02812Q86.52812 143.37187 86.95 143.37187Q87.3875 143.37187 87.6375 143.02812Q87.95 142.54375 87.95 141.15312Q87.95 139.74687 87.6375 139.27812Q87.3875 138.91875 86.95 138.91875Q86.52812 138.91875 86.27812 139.27812Q85.96562 139.74687 85.96562 141.15312ZM89.04375 152.49687L87.0125 152.49687L94.6375 137.3875L96.60625 137.3875L89.04375 152.49687ZM93.48125 148.73125Q93.48125 146.80937 94.325 145.8875Q95.16875 144.95 96.6375 144.95Q98.10625 144.95 98.95 145.8875Q99.79375 146.80937 99.79375 148.73125Q99.79375 150.66875 98.95 151.60625Q98.10625 152.52812 96.66875 152.52812Q95.16875 152.52812 94.325 151.60625Q93.48125 150.66875 93.48125 148.73125ZM95.62187 148.73125Q95.62187 150.12187 95.93437 150.59062Q96.18437 150.95 96.60625 150.95Q97.05937 150.95 97.29375 150.60625Q97.60625 150.12187 97.60625 148.73125Q97.60625 147.325 97.29375 146.85625Q97.05937 146.49687 96.60625 146.49687Q96.16875 146.49687 95.93437 146.85625Q95.62187 147.325 95.62187 148.73125Z" fill-rule="nonzero"/><path stroke="#757575" stroke-width="1.0" stroke-linecap="butt" d="M54.95 131.45L172.95 131.45L597.367 85.88707" fill-rule="nonzero"/><path fill="#9e9e9e" d="M599.367 85.88707C599.367 84.7825 598.47156 83.88707 597.367 83.88707C596.2624 83.88707 595.367 84.7825 595.367 85.88707C595.367 86.991646 596.2624 87.88707 597.367 87.88707C598.47156 87.88707 599.367 86.991646 599.367 85.88707" fill-rule="nonzero"/><path fill="#000000" d="M65.55937 170.68437L68.37187 171.575Q67.73125 173.91875 66.23125 175.05937Q64.73125 176.2 62.41875 176.2Q59.575 176.2 57.73125 174.24687Q55.903126 172.29375 55.903126 168.91875Q55.903126 165.34062 57.746876 163.37187Q59.590626 161.3875 62.590626 161.3875Q65.23125 161.3875 66.87187 162.93437Q67.84062 163.85625 68.325 165.575L65.46562 166.2625Q65.21562 165.15312 64.40312 164.5125Q63.60625 163.85625 62.45 163.85625Q60.85625 163.85625 59.85625 164.99687Q58.871876 166.1375 58.871876 168.7Q58.871876 171.41875 59.840626 172.575Q60.825 173.71562 62.3875 173.71562Q63.54375 173.71562 64.37187 172.99687Q65.2 172.2625 65.55937 170.68437ZM69.74687 170.62187Q69.74687 169.24687 70.41875 167.96562Q71.10625 166.68437 72.34062 166.0125Q73.575 165.34062 75.09062 165.34062Q77.45 165.34062 78.95 166.87187Q80.45 168.40312 80.45 170.73125Q80.45 173.09062 78.93437 174.6375Q77.41875 176.18437 75.10625 176.18437Q73.68437 176.18437 72.3875 175.54375Q71.10625 174.8875 70.41875 173.65312Q69.74687 172.40312 69.74687 170.62187ZM72.55937 170.7625Q72.55937 172.30937 73.29375 173.1375Q74.02812 173.95 75.10625 173.95Q76.18437 173.95 76.90312 173.1375Q77.6375 172.30937 77.6375 170.74687Q77.6375 169.21562 76.90312 168.40312Q76.18437 167.575 75.10625 167.575Q74.02812 167.575 73.29375 168.40312Q72.55937 169.21562 72.55937 170.7625ZM91.825 175.95L89.075 175.95L89.075 170.65312Q89.075 168.98125 88.90312 168.49687Q88.73125 167.99687 88.325 167.73125Q87.93437 167.45 87.37187 167.45Q86.66875 167.45 86.09062 167.84062Q85.52812 168.23125 85.30937 168.87187Q85.10625 169.5125 85.10625 171.24687L85.10625 175.95L82.37187 175.95L82.37187 165.575L84.91875 165.575L84.91875 167.10625Q86.27812 165.34062 88.34062 165.34062Q89.24687 165.34062 89.99687 165.66875Q90.74687 165.99687 91.12187 166.5125Q91.5125 167.0125 91.66875 167.66875Q91.825 168.30937 91.825 169.49687L91.825 175.95ZM100.3875 172.65312L103.12187 173.10625Q102.60625 174.60625 101.46562 175.40312Q100.325 176.18437 98.62187 176.18437Q95.90312 176.18437 94.60625 174.41875Q93.59062 172.99687 93.59062 170.84062Q93.59062 168.2625 94.93437 166.80937Q96.27812 165.34062 98.34062 165.34062Q100.65312 165.34062 101.98125 166.87187Q103.325 168.40312 103.27812 171.55937L96.40312 171.55937Q96.43437 172.77812 97.05937 173.46562Q97.7 174.1375 98.6375 174.1375Q99.29375 174.1375 99.73125 173.79375Q100.16875 173.43437 100.3875 172.65312ZM100.54375 169.87187Q100.5125 168.68437 99.91875 168.075Q99.34062 167.45 98.5125 167.45Q97.60625 167.45 97.02812 168.09062Q96.43437 168.74687 96.45 169.87187L100.54375 169.87187Z" fill-rule="nonzero"/><path fill="#9e9e9e" d="M65.075 200.40312L65.075 202.95L55.45 202.95Q55.60625 201.49687 56.3875 200.21562Q57.16875 198.91875 59.465626 196.77812Q61.325 195.04375 61.746876 194.43437Q62.309376 193.59062 62.309376 192.74687Q62.309376 191.84062 61.809376 191.35625Q61.325 190.85625 60.465626 190.85625Q59.60625 190.85625 59.090626 191.37187Q58.590626 191.8875 58.5125 193.09062L55.778126 192.80937Q56.0125 190.54375 57.29375 189.55937Q58.590626 188.575 60.528126 188.575Q62.653126 188.575 63.85625 189.71562Q65.075 190.85625 65.075 192.55937Q65.075 193.52812 64.71562 194.40312Q64.37187 195.27812 63.621876 196.23125Q63.121876 196.87187 61.825 198.05937Q60.528126 199.24687 60.184376 199.6375Q59.840626 200.02812 59.621876 200.40312L65.075 200.40312ZM67.3875 202.95L67.3875 200.2L70.1375 200.2L70.1375 202.95L67.3875 202.95ZM72.7 199.15312L75.35625 198.825Q75.48125 199.84062 76.04375 200.3875Q76.60625 200.91875 77.3875 200.91875Q78.24687 200.91875 78.825 200.27812Q79.40312 199.62187 79.40312 198.52812Q79.40312 197.49687 78.84062 196.90312Q78.29375 196.29375 77.48125 196.29375Q76.96562 196.29375 76.23125 196.49687L76.52812 194.2625Q77.6375 194.29375 78.21562 193.77812Q78.80937 193.2625 78.80937 192.41875Q78.80937 191.68437 78.37187 191.2625Q77.95 190.825 77.24687 190.825Q76.54375 190.825 76.04375 191.325Q75.54375 191.80937 75.43437 192.74687L72.90312 192.30937Q73.16875 191.0125 73.7 190.24687Q74.23125 189.46562 75.18437 189.02812Q76.1375 188.575 77.325 188.575Q79.34062 188.575 80.55937 189.85625Q81.575 190.91875 81.575 192.24687Q81.575 194.1375 79.5125 195.24687Q80.74687 195.5125 81.48125 196.43437Q82.21562 197.35625 82.21562 198.65312Q82.21562 200.54375 80.84062 201.87187Q79.46562 203.2 77.40312 203.2Q75.46562 203.2 74.18437 202.075Q72.90312 200.95 72.7 199.15312ZM83.825 192.16875Q83.825 190.24687 84.66875 189.325Q85.5125 188.3875 86.95 188.3875Q88.45 188.3875 89.29375 189.30937Q90.1375 190.23125 90.1375 192.16875Q90.1375 194.09062 89.29375 195.02812Q88.45 195.95 86.99687 195.95Q85.5125 195.95 84.66875 195.02812Q83.825 194.10625 83.825 192.16875ZM85.96562 192.15312Q85.96562 193.54375 86.27812 194.02812Q86.52812 194.37187 86.95 194.37187Q87.3875 194.37187 87.6375 194.02812Q87.95 193.54375 87.95 192.15312Q87.95 190.74687 87.6375 190.27812Q87.3875 189.91875 86.95 189.91875Q86.52812 189.91875 86.27812 190.27812Q85.96562 190.74687 85.96562 192.15312ZM89.04375 203.49687L87.0125 203.49687L94.6375 188.3875L96.60625 188.3875L89.04375 203.49687ZM93.48125 199.73125Q93.48125 197.80937 94.325 196.8875Q95.16875 195.95 96.6375 195.95Q98.10625 195.95 98.95 196.8875Q99.79375 197.80937 99.79375 199.73125Q99.79375 201.66875 98.95 202.60625Q98.10625 203.52812 96.66875 203.52812Q95.16875 203.52812 94.325 202.60625Q93.48125 201.66875 93.48125 199.73125ZM95.62187 199.73125Q95.62187 201.12187 95.93437 201.59062Q96.18437 201.95 96.60625 201.95Q97.05937 201.95 97.29375 201.60625Q97.60625 201.12187 97.60625 199.73125Q97.60625 198.325 97.29375 197.85625Q97.05937 197.49687 96.60625 197.49687Q96.16875 197.49687 95.93437 197.85625Q95.62187 198.325 95.62187 199.73125Z" fill-rule="nonzero"/><path stroke="#757575" stroke-width="1.0" stroke-linecap="butt" d="M54.95 182.45L172.95 182.45L542.6828 98.25722" fill-rule="nonzero"/><path fill="#9e9e9e" d="M544.6828 98.25722C544.6828 97.15265 543.7874 96.25722 542.6828 96.25722C541.57825 96.25722 540.6828 97.15265 540.6828 98.25722C540.6828 99.361786 541.57825 100.25722 542.6828 100.25722C543.7874 100.25722 544.6828 99.361786 544.6828 98.25722" fill-rule="nonzero"/><path fill="#000000" d="M65.55937 303.47086L68.37187 304.36148Q67.73125 306.70523 66.23125 307.84586Q64.73125 308.98648 62.41875 308.98648Q59.575 308.98648 57.73125 307.03336Q55.903126 305.08023 55.903126 301.70523Q55.903126 298.1271 57.746876 296.15836Q59.590626 294.17398 62.590626 294.17398Q65.23125 294.17398 66.87187 295.72086Q67.84062 296.64273 68.325 298.36148L65.46562 299.04898Q65.21562 297.9396 64.40312 297.29898Q63.60625 296.64273 62.45 296.64273Q60.85625 296.64273 59.85625 297.78336Q58.871876 298.92398 58.871876 301.48648Q58.871876 304.20523 59.840626 305.36148Q60.825 306.5021 62.3875 306.5021Q63.54375 306.5021 64.37187 305.78336Q65.2 305.04898 65.55937 303.47086ZM69.09062 298.36148L72.0125 298.36148L74.48125 305.72086L76.90312 298.36148L79.74687 298.36148L76.09062 308.34586L75.43437 310.15836Q75.075 311.0646 74.74687 311.53336Q74.41875 312.01773 73.99687 312.3146Q73.575 312.61148 72.95 312.76773Q72.325 312.9396 71.54375 312.9396Q70.7625 312.9396 69.99687 312.78336L69.74687 310.6271Q70.40312 310.7521 70.91875 310.7521Q71.87187 310.7521 72.325 310.1896Q72.79375 309.64273 73.02812 308.76773L69.09062 298.36148ZM81.3875 308.73648L81.3875 294.42398L84.1375 294.42398L84.1375 308.73648L81.3875 308.73648ZM87.3875 296.95523L87.3875 294.42398L90.1375 294.42398L90.1375 296.95523L87.3875 296.95523ZM87.3875 308.73648L87.3875 298.36148L90.1375 298.36148L90.1375 308.73648L87.3875 308.73648ZM102.825 308.73648L100.075 308.73648L100.075 303.4396Q100.075 301.76773 99.90312 301.28336Q99.73125 300.78336 99.325 300.51773Q98.93437 300.23648 98.37187 300.23648Q97.66875 300.23648 97.09062 300.6271Q96.52812 301.01773 96.30937 301.65836Q96.10625 302.29898 96.10625 304.03336L96.10625 308.73648L93.37187 308.73648L93.37187 298.36148L95.91875 298.36148L95.91875 299.89273Q97.27812 298.1271 99.34062 298.1271Q100.24687 298.1271 100.99687 298.45523Q101.74687 298.78336 102.12187 299.29898Q102.5125 299.79898 102.66875 300.45523Q102.825 301.09586 102.825 302.28336L102.825 308.73648ZM114.90312 308.73648L112.35625 308.73648L112.35625 307.20523Q111.71562 308.09586 110.84062 308.53336Q109.98125 308.97086 109.10625 308.97086Q107.325 308.97086 106.04375 307.53336Q104.77812 306.09586 104.77812 303.51773Q104.77812 300.8771 106.0125 299.5021Q107.24687 298.1271 109.15312 298.1271Q110.8875 298.1271 112.15312 299.58023L112.15312 294.42398L114.90312 294.42398L114.90312 308.73648ZM107.575 303.33023Q107.575 304.98648 108.02812 305.72086Q108.7 306.79898 109.8875 306.79898Q110.84062 306.79898 111.49687 306.0021Q112.16875 305.1896 112.16875 303.59586Q112.16875 301.79898 111.5125 301.01773Q110.87187 300.23648 109.87187 300.23648Q108.8875 300.23648 108.23125 301.01773Q107.575 301.78336 107.575 303.33023ZM123.3875 305.4396L126.12187 305.89273Q125.60625 307.39273 124.46562 308.1896Q123.325 308.97086 121.62187 308.97086Q118.90312 308.97086 117.60625 307.20523Q116.59062 305.78336 116.59062 303.6271Q116.59062 301.04898 117.93437 299.59586Q119.27812 298.1271 121.34062 298.1271Q123.65312 298.1271 124.98125 299.65836Q126.325 301.1896 126.27812 304.34586L119.40312 304.34586Q119.43437 305.5646 120.05937 306.2521Q120.7 306.92398 121.6375 306.92398Q122.29375 306.92398 122.73125 306.58023Q123.16875 306.22086 123.3875 305.4396ZM123.54375 302.65836Q123.5125 301.47086 122.91875 300.86148Q122.34062 300.23648 121.5125 300.23648Q120.60625 300.23648 120.02812 300.8771Q119.43437 301.53336 119.45 302.65836L123.54375 302.65836ZM131.0125 308.73648L128.2625 308.73648L128.2625 298.36148L130.825 298.36148L130.825 299.84586Q131.46562 298.79898 131.98125 298.47086Q132.5125 298.1271 133.18437 298.1271Q134.12187 298.1271 134.98125 298.64273L134.1375 301.03336Q133.45 300.59586 132.85625 300.59586Q132.27812 300.59586 131.87187 300.90836Q131.46562 301.22086 131.23125 302.0646Q131.0125 302.89273 131.0125 305.53336L131.0125 308.73648Z" fill-rule="nonzero"/><path fill="#9e9e9e" d="M65.075 333.1896L65.075 335.73648L55.45 335.73648Q55.60625 334.28336 56.3875 333.0021Q57.16875 331.70523 59.465626 329.5646Q61.325 327.83023 61.746876 327.22086Q62.309376 326.3771 62.309376 325.53336Q62.309376 324.6271 61.809376 324.14273Q61.325 323.64273 60.465626 323.64273Q59.60625 323.64273 59.090626 324.15836Q58.590626 324.67398 58.5125 325.8771L55.778126 325.59586Q56.0125 323.33023 57.29375 322.34586Q58.590626 321.36148 60.528126 321.36148Q62.653126 321.36148 63.85625 322.5021Q65.075 323.64273 65.075 325.34586Q65.075 326.3146 64.71562 327.1896Q64.37187 328.0646 63.621876 329.01773Q63.121876 329.65836 61.825 330.84586Q60.528126 332.03336 60.184376 332.42398Q59.840626 332.8146 59.621876 333.1896L65.075 333.1896ZM76.075 333.1896L76.075 335.73648L66.45 335.73648Q66.60625 334.28336 67.3875 333.0021Q68.16875 331.70523 70.46562 329.5646Q72.325 327.83023 72.74687 327.22086Q73.30937 326.3771 73.30937 325.53336Q73.30937 324.6271 72.80937 324.14273Q72.325 323.64273 71.46562 323.64273Q70.60625 323.64273 70.09062 324.15836Q69.59062 324.67398 69.5125 325.8771L66.77812 325.59586Q67.0125 323.33023 68.29375 322.34586Q69.59062 321.36148 71.52812 321.36148Q73.65312 321.36148 74.85625 322.5021Q76.075 323.64273 76.075 325.34586Q76.075 326.3146 75.71562 327.1896Q75.37187 328.0646 74.62187 329.01773Q74.12187 329.65836 72.825 330.84586Q71.52812 332.03336 71.18437 332.42398Q70.84062 332.8146 70.62187 333.1896L76.075 333.1896ZM78.3875 335.73648L78.3875 332.98648L81.1375 332.98648L81.1375 335.73648L78.3875 335.73648ZM90.825 335.73648L88.075 335.73648L88.075 325.39273Q86.575 326.79898 84.52812 327.47086L84.52812 324.98648Q85.60625 324.6271 86.85625 323.65836Q88.12187 322.67398 88.59062 321.36148L90.825 321.36148L90.825 335.73648ZM94.825 324.95523Q94.825 323.03336 95.66875 322.11148Q96.5125 321.17398 97.95 321.17398Q99.45 321.17398 100.29375 322.09586Q101.1375 323.01773 101.1375 324.95523Q101.1375 326.8771 100.29375 327.8146Q99.45 328.73648 97.99687 328.73648Q96.5125 328.73648 95.66875 327.8146Q94.825 326.89273 94.825 324.95523ZM96.96562 324.9396Q96.96562 326.33023 97.27812 326.8146Q97.52812 327.15836 97.95 327.15836Q98.3875 327.15836 98.6375 326.8146Q98.95 326.33023 98.95 324.9396Q98.95 323.53336 98.6375 323.0646Q98.3875 322.70523 97.95 322.70523Q97.52812 322.70523 97.27812 323.0646Q96.96562 323.53336 96.96562 324.9396ZM100.04375 336.28336L98.0125 336.28336L105.6375 321.17398L107.60625 321.17398L100.04375 336.28336ZM104.48125 332.51773Q104.48125 330.59586 105.325 329.67398Q106.16875 328.73648 107.6375 328.73648Q109.10625 328.73648 109.95 329.67398Q110.79375 330.59586 110.79375 332.51773Q110.79375 334.45523 109.95 335.39273Q109.10625 336.3146 107.66875 336.3146Q106.16875 336.3146 105.325 335.39273Q104.48125 334.45523 104.48125 332.51773ZM106.62187 332.51773Q106.62187 333.90836 106.93437 334.3771Q107.18437 334.73648 107.60625 334.73648Q108.05937 334.73648 108.29375 334.39273Q108.60625 333.90836 108.60625 332.51773Q108.60625 331.11148 108.29375 330.64273Q108.05937 330.28336 107.60625 330.28336Q107.16875 330.28336 106.93437 330.64273Q106.62187 331.11148 106.62187 332.51773Z" fill-rule="nonzero"/><path stroke="#757575" stroke-width="1.0" stroke-linecap="butt" d="M54.95 315.23648L172.95 315.23648L266.2485 315.23648" fill-rule="nonzero"/><path fill="#9e9e9e" d="M268.2485 315.23648C268.2485 314.1319 267.3531 313.23648 266.2485 313.23648C265.14392 313.23648 264.2485 314.1319 264.2485 315.23648C264.2485 316.34103 265.14392 317.23648 266.2485 317.23648C267.3531 317.23648 268.2485 316.34103 268.2485 315.23648" fill-rule="nonzero"/><path fill="#000000" d="M56.403126 603.468L56.403126 589.1555L67.02812 589.1555L67.02812 591.5774L59.29375 591.5774L59.29375 594.74927L66.48125 594.74927L66.48125 597.1555L59.29375 597.1555L59.29375 601.06177L67.29375 601.06177L67.29375 603.468L56.403126 603.468ZM68.075 603.468L71.80937 598.12427L68.23125 593.093L71.575 593.093L73.40312 595.9524L75.34062 593.093L78.55937 593.093L75.04375 598.0149L78.8875 603.468L75.5125 603.468L73.40312 600.24927L71.27812 603.468L68.075 603.468ZM85.1375 593.093L85.1375 595.2805L83.2625 595.2805L83.2625 599.468Q83.2625 600.73364 83.30937 600.9524Q83.37187 601.1555 83.55937 601.29614Q83.7625 601.42114 84.02812 601.42114Q84.40312 601.42114 85.1375 601.1555L85.37187 603.29614Q84.40312 603.7024 83.2 603.7024Q82.45 603.7024 81.85625 603.4524Q81.2625 603.2024 80.98125 602.81177Q80.71562 602.4055 80.60625 601.73364Q80.5125 601.2649 80.5125 599.81177L80.5125 595.2805L79.24687 595.2805L79.24687 593.093L80.5125 593.093L80.5125 591.0305L83.2625 589.43677L83.2625 593.093L85.1375 593.093ZM90.0125 603.468L87.2625 603.468L87.2625 593.093L89.825 593.093L89.825 594.5774Q90.46562 593.5305 90.98125 593.2024Q91.5125 592.85864 92.18437 592.85864Q93.12187 592.85864 93.98125 593.37427L93.1375 595.7649Q92.45 595.3274 91.85625 595.3274Q91.27812 595.3274 90.87187 595.6399Q90.46562 595.9524 90.23125 596.79614Q90.0125 597.62427 90.0125 600.2649L90.0125 603.468ZM102.21562 603.468L102.21562 601.92114Q101.65312 602.74927 100.71562 603.23364Q99.79375 603.7024 98.77812 603.7024Q97.73125 603.7024 96.90312 603.24927Q96.075 602.7805 95.7 601.9524Q95.325 601.12427 95.325 599.6555L95.325 593.093L98.075 593.093L98.075 597.85864Q98.075 600.04614 98.21562 600.54614Q98.37187 601.0305 98.7625 601.3274Q99.16875 601.60864 99.79375 601.60864Q100.49687 601.60864 101.04375 601.23364Q101.60625 600.843 101.80937 600.2805Q102.0125 599.7024 102.0125 597.468L102.0125 593.093L104.7625 593.093L104.7625 603.468L102.21562 603.468ZM106.41875 600.5149L109.16875 600.093Q109.35625 600.8899 109.8875 601.31177Q110.41875 601.718 111.3875 601.718Q112.45 601.718 112.99687 601.3274Q113.35625 601.06177 113.35625 600.593Q113.35625 600.2805 113.15312 600.0774Q112.95 599.8899 112.24687 599.718Q108.91875 598.98364 108.02812 598.37427Q106.79375 597.54614 106.79375 596.04614Q106.79375 594.7024 107.85625 593.7805Q108.93437 592.85864 111.16875 592.85864Q113.29375 592.85864 114.325 593.56177Q115.37187 594.24927 115.7625 595.60864L113.16875 596.0774Q112.99687 595.48364 112.52812 595.1555Q112.075 594.8274 111.21562 594.8274Q110.1375 594.8274 109.66875 595.1399Q109.35625 595.35864 109.35625 595.68677Q109.35625 595.98364 109.62187 596.18677Q109.99687 596.468 112.18437 596.968Q114.37187 597.468 115.24687 598.18677Q116.10625 598.92114 116.10625 600.218Q116.10625 601.6555 114.91875 602.68677Q113.73125 603.7024 111.3875 603.7024Q109.27812 603.7024 108.02812 602.843Q106.79375 601.98364 106.41875 600.5149ZM118.3875 591.68677L118.3875 589.1555L121.1375 589.1555L121.1375 591.68677L118.3875 591.68677ZM118.3875 603.468L118.3875 593.093L121.1375 593.093L121.1375 603.468L118.3875 603.468ZM123.74687 598.1399Q123.74687 596.7649 124.41875 595.48364Q125.10625 594.2024 126.34062 593.5305Q127.575 592.85864 129.09062 592.85864Q131.45 592.85864 132.95 594.3899Q134.45 595.92114 134.45 598.24927Q134.45 600.60864 132.93437 602.1555Q131.41875 603.7024 129.10625 603.7024Q127.68437 603.7024 126.3875 603.06177Q125.10625 602.4055 124.41875 601.17114Q123.74687 599.92114 123.74687 598.1399ZM126.55937 598.2805Q126.55937 599.8274 127.29375 600.6555Q128.02812 601.468 129.10625 601.468Q130.18437 601.468 130.90312 600.6555Q131.6375 599.8274 131.6375 598.2649Q131.6375 596.73364 130.90312 595.92114Q130.18437 595.093 129.10625 595.093Q128.02812 595.093 127.29375 595.92114Q126.55937 596.73364 126.55937 598.2805ZM145.825 603.468L143.075 603.468L143.075 598.17114Q143.075 596.49927 142.90312 596.0149Q142.73125 595.5149 142.325 595.24927Q141.93437 594.968 141.37187 594.968Q140.66875 594.968 140.09062 595.35864Q139.52812 595.74927 139.30937 596.3899Q139.10625 597.0305 139.10625 598.7649L139.10625 603.468L136.37187 603.468L136.37187 593.093L138.91875 593.093L138.91875 594.62427Q140.27812 592.85864 142.34062 592.85864Q143.24687 592.85864 143.99687 593.18677Q144.74687 593.5149 145.12187 594.0305Q145.5125 594.5305 145.66875 595.18677Q145.825 595.8274 145.825 597.0149L145.825 603.468Z" fill-rule="nonzero"/><path fill="#9e9e9e" d="M60.434376 616.093Q62.5125 616.093 63.684376 617.5774Q65.09062 619.3274 65.09062 623.4055Q65.09062 627.468 63.684376 629.24927Q62.5125 630.718 60.434376 630.718Q58.35625 630.718 57.075 629.10864Q55.79375 627.49927 55.79375 623.37427Q55.79375 619.3274 57.2 617.56177Q58.35625 616.093 60.434376 616.093ZM60.434376 618.37427Q59.934376 618.37427 59.54375 618.68677Q59.153126 618.99927 58.95 619.8274Q58.66875 620.8899 58.66875 623.4055Q58.66875 625.92114 58.91875 626.87427Q59.16875 627.81177 59.54375 628.12427Q59.934376 628.43677 60.434376 628.43677Q60.934376 628.43677 61.325 628.12427Q61.715626 627.79614 61.934376 626.98364Q62.215626 625.92114 62.215626 623.4055Q62.215626 620.8899 61.965626 619.9524Q61.715626 618.99927 61.325 618.68677Q60.934376 618.37427 60.434376 618.37427ZM67.3875 630.468L67.3875 627.718L70.1375 627.718L70.1375 630.468L67.3875 630.468ZM82.09062 619.6555L79.43437 619.9524Q79.34062 619.12427 78.93437 618.73364Q78.52812 618.343 77.87187 618.343Q76.99687 618.343 76.3875 619.12427Q75.79375 619.9055 75.6375 622.37427Q76.66875 621.17114 78.18437 621.17114Q79.90312 621.17114 81.12187 622.48364Q82.35625 623.7805 82.35625 625.85864Q82.35625 628.06177 81.05937 629.3899Q79.77812 630.718 77.7625 630.718Q75.59062 630.718 74.18437 629.0305Q72.79375 627.343 72.79375 623.49927Q72.79375 619.56177 74.24687 617.8274Q75.71562 616.093 78.02812 616.093Q79.66875 616.093 80.73125 617.0149Q81.80937 617.92114 82.09062 619.6555ZM75.87187 625.6399Q75.87187 626.98364 76.48125 627.718Q77.10625 628.43677 77.90312 628.43677Q78.65312 628.43677 79.15312 627.843Q79.66875 627.24927 79.66875 625.8899Q79.66875 624.48364 79.12187 623.843Q78.575 623.18677 77.7625 623.18677Q76.96562 623.18677 76.41875 623.81177Q75.87187 624.43677 75.87187 625.6399ZM83.825 619.68677Q83.825 617.7649 84.66875 616.843Q85.5125 615.9055 86.95 615.9055Q88.45 615.9055 89.29375 616.8274Q90.1375 617.74927 90.1375 619.68677Q90.1375 621.60864 89.29375 622.54614Q88.45 623.468 86.99687 623.468Q85.5125 623.468 84.66875 622.54614Q83.825 621.62427 83.825 619.68677ZM85.96562 619.67114Q85.96562 621.06177 86.27812 621.54614Q86.52812 621.8899 86.95 621.8899Q87.3875 621.8899 87.6375 621.54614Q87.95 621.06177 87.95 619.67114Q87.95 618.2649 87.6375 617.79614Q87.3875 617.43677 86.95 617.43677Q86.52812 617.43677 86.27812 617.79614Q85.96562 618.2649 85.96562 619.67114ZM89.04375 631.0149L87.0125 631.0149L94.6375 615.9055L96.60625 615.9055L89.04375 631.0149ZM93.48125 627.24927Q93.48125 625.3274 94.325 624.4055Q95.16875 623.468 96.6375 623.468Q98.10625 623.468 98.95 624.4055Q99.79375 625.3274 99.79375 627.24927Q99.79375 629.18677 98.95 630.12427Q98.10625 631.04614 96.66875 631.04614Q95.16875 631.04614 94.325 630.12427Q93.48125 629.18677 93.48125 627.24927ZM95.62187 627.24927Q95.62187 628.6399 95.93437 629.10864Q96.18437 629.468 96.60625 629.468Q97.05937 629.468 97.29375 629.12427Q97.60625 628.6399 97.60625 627.24927Q97.60625 625.843 97.29375 625.37427Q97.05937 625.0149 96.60625 625.0149Q96.16875 625.0149 95.93437 625.37427Q95.62187 625.843 95.62187 627.24927Z" fill-rule="nonzero"/><path stroke="#757575" stroke-width="1.0" stroke-linecap="butt" d="M54.95 609.968L172.95 609.968L212.36006 639.40625" fill-rule="nonzero"/><path fill="#9e9e9e" d="M214.36006 639.40625C214.36006 638.3017 213.46463 637.40625 212.36006 637.40625C211.2555 637.40625 210.36006 638.3017 210.36006 639.40625C210.36006 640.51086 211.2555 641.40625 212.36006 641.40625C213.46463 641.40625 214.36006 640.51086 214.36006 639.40625" fill-rule="nonzero"/><path fill="#000000" d="M55.66875 649.81177L58.48125 649.5305Q58.746876 650.9524 59.5125 651.62427Q60.29375 652.2805 61.60625 652.2805Q63.0125 652.2805 63.715626 651.68677Q64.41875 651.093 64.41875 650.31177Q64.41875 649.79614 64.12187 649.4524Q63.825 649.093 63.090626 648.8274Q62.575 648.6399 60.778126 648.2024Q58.45 647.62427 57.5125 646.7805Q56.184376 645.593 56.184376 643.9055Q56.184376 642.81177 56.809376 641.85864Q57.434376 640.9055 58.590626 640.4055Q59.7625 639.9055 61.41875 639.9055Q64.10625 639.9055 65.46562 641.093Q66.84062 642.2649 66.90312 644.24927L64.0125 644.37427Q63.825 643.2649 63.215626 642.7805Q62.60625 642.29614 61.3875 642.29614Q60.121876 642.29614 59.41875 642.81177Q58.95 643.1555 58.95 643.7024Q58.95 644.218 59.3875 644.5774Q59.934376 645.0305 62.04375 645.5305Q64.15312 646.0305 65.15312 646.56177Q66.16875 647.093 66.73125 648.0149Q67.30937 648.93677 67.30937 650.29614Q67.30937 651.5305 66.62187 652.60864Q65.95 653.67114 64.7 654.2024Q63.45 654.718 61.575 654.718Q58.871876 654.718 57.403126 653.468Q55.95 652.218 55.66875 649.81177ZM69.30937 644.093L71.87187 644.093L71.87187 645.62427Q72.37187 644.843 73.21562 644.35864Q74.05937 643.85864 75.10625 643.85864Q76.90312 643.85864 78.15312 645.2805Q79.41875 646.68677 79.41875 649.218Q79.41875 651.8274 78.15312 653.2649Q76.8875 654.7024 75.075 654.7024Q74.21562 654.7024 73.5125 654.35864Q72.825 654.0149 72.05937 653.18677L72.05937 658.42114L69.30937 658.42114L69.30937 644.093ZM72.02812 649.10864Q72.02812 650.85864 72.71562 651.7024Q73.40312 652.5305 74.40312 652.5305Q75.35625 652.5305 75.99687 651.7649Q76.6375 650.98364 76.6375 649.24927Q76.6375 647.60864 75.98125 646.8274Q75.325 646.0305 74.35625 646.0305Q73.35625 646.0305 72.68437 646.81177Q72.02812 647.5774 72.02812 649.10864ZM84.12187 640.1555L84.12187 645.42114Q85.45 643.85864 87.29375 643.85864Q88.24687 643.85864 88.99687 644.218Q89.7625 644.56177 90.15312 645.10864Q90.54375 645.6555 90.68437 646.3274Q90.825 646.98364 90.825 648.3899L90.825 654.468L88.075 654.468L88.075 648.98364Q88.075 647.35864 87.91875 646.92114Q87.7625 646.48364 87.35625 646.23364Q86.96562 645.968 86.37187 645.968Q85.7 645.968 85.15312 646.29614Q84.62187 646.62427 84.37187 647.29614Q84.12187 647.968 84.12187 649.2649L84.12187 654.468L81.37187 654.468L81.37187 640.1555L84.12187 640.1555ZM99.3875 651.17114L102.12187 651.62427Q101.60625 653.12427 100.46562 653.92114Q99.325 654.7024 97.62187 654.7024Q94.90312 654.7024 93.60625 652.93677Q92.59062 651.5149 92.59062 649.35864Q92.59062 646.7805 93.93437 645.3274Q95.27812 643.85864 97.34062 643.85864Q99.65312 643.85864 100.98125 645.3899Q102.325 646.92114 102.27812 650.0774L95.40312 650.0774Q95.43437 651.29614 96.05937 651.98364Q96.7 652.6555 97.6375 652.6555Q98.29375 652.6555 98.73125 652.31177Q99.16875 651.9524 99.3875 651.17114ZM99.54375 648.3899Q99.5125 647.2024 98.91875 646.593Q98.34062 645.968 97.5125 645.968Q96.60625 645.968 96.02812 646.60864Q95.43437 647.2649 95.45 648.3899L99.54375 648.3899ZM107.0125 654.468L104.2625 654.468L104.2625 644.093L106.825 644.093L106.825 645.5774Q107.46562 644.5305 107.98125 644.2024Q108.5125 643.85864 109.18437 643.85864Q110.12187 643.85864 110.98125 644.37427L110.1375 646.7649Q109.45 646.3274 108.85625 646.3274Q108.27812 646.3274 107.87187 646.6399Q107.46562 646.9524 107.23125 647.79614Q107.0125 648.62427 107.0125 651.2649L107.0125 654.468ZM118.3875 651.17114L121.12187 651.62427Q120.60625 653.12427 119.46562 653.92114Q118.325 654.7024 116.62187 654.7024Q113.90312 654.7024 112.60625 652.93677Q111.59062 651.5149 111.59062 649.35864Q111.59062 646.7805 112.93437 645.3274Q114.27812 643.85864 116.34062 643.85864Q118.65312 643.85864 119.98125 645.3899Q121.325 646.92114 121.27812 650.0774L114.40312 650.0774Q114.43437 651.29614 115.05937 651.98364Q115.7 652.6555 116.6375 652.6555Q117.29375 652.6555 117.73125 652.31177Q118.16875 651.9524 118.3875 651.17114ZM118.54375 648.3899Q118.5125 647.2024 117.91875 646.593Q117.34062 645.968 116.5125 645.968Q115.60625 645.968 115.02812 646.60864Q114.43437 647.2649 114.45 648.3899L118.54375 648.3899Z" fill-rule="nonzero"/><path fill="#9e9e9e" d="M60.434376 667.093Q62.5125 667.093 63.684376 668.5774Q65.09062 670.3274 65.09062 674.4055Q65.09062 678.468 63.684376 680.24927Q62.5125 681.718 60.434376 681.718Q58.35625 681.718 57.075 680.10864Q55.79375 678.49927 55.79375 674.37427Q55.79375 670.3274 57.2 668.56177Q58.35625 667.093 60.434376 667.093ZM60.434376 669.37427Q59.934376 669.37427 59.54375 669.68677Q59.153126 669.99927 58.95 670.8274Q58.66875 671.8899 58.66875 674.4055Q58.66875 676.92114 58.91875 677.87427Q59.16875 678.81177 59.54375 679.12427Q59.934376 679.43677 60.434376 679.43677Q60.934376 679.43677 61.325 679.12427Q61.715626 678.79614 61.934376 677.98364Q62.215626 676.92114 62.215626 674.4055Q62.215626 671.8899 61.965626 670.9524Q61.715626 669.99927 61.325 669.68677Q60.934376 669.37427 60.434376 669.37427ZM67.3875 681.468L67.3875 678.718L70.1375 678.718L70.1375 681.468L67.3875 681.468ZM75.15312 673.74927Q74.09062 673.29614 73.60625 672.5149Q73.12187 671.718 73.12187 670.7805Q73.12187 669.18677 74.23125 668.1399Q75.35625 667.093 77.41875 667.093Q79.46562 667.093 80.59062 668.1399Q81.71562 669.18677 81.71562 670.7805Q81.71562 671.7805 81.2 672.56177Q80.68437 673.3274 79.74687 673.74927Q80.93437 674.218 81.54375 675.1399Q82.16875 676.06177 82.16875 677.2649Q82.16875 679.23364 80.90312 680.48364Q79.65312 681.718 77.54375 681.718Q75.59062 681.718 74.29375 680.7024Q72.7625 679.48364 72.7625 677.37427Q72.7625 676.218 73.34062 675.24927Q73.91875 674.2649 75.15312 673.74927ZM75.71562 670.98364Q75.71562 671.79614 76.18437 672.2649Q76.65312 672.718 77.41875 672.718Q78.2 672.718 78.66875 672.2649Q79.1375 671.79614 79.1375 670.968Q79.1375 670.2024 78.66875 669.73364Q78.21562 669.2649 77.45 669.2649Q76.65312 669.2649 76.18437 669.73364Q75.71562 670.2024 75.71562 670.98364ZM75.46562 677.10864Q75.46562 678.24927 76.04375 678.8899Q76.62187 679.5149 77.49687 679.5149Q78.34062 679.5149 78.90312 678.9055Q79.46562 678.29614 79.46562 677.1399Q79.46562 676.1399 78.8875 675.5305Q78.325 674.92114 77.46562 674.92114Q76.45 674.92114 75.95 675.60864Q75.46562 676.29614 75.46562 677.10864ZM83.825 670.68677Q83.825 668.7649 84.66875 667.843Q85.5125 666.9055 86.95 666.9055Q88.45 666.9055 89.29375 667.8274Q90.1375 668.74927 90.1375 670.68677Q90.1375 672.60864 89.29375 673.54614Q88.45 674.468 86.99687 674.468Q85.5125 674.468 84.66875 673.54614Q83.825 672.62427 83.825 670.68677ZM85.96562 670.67114Q85.96562 672.06177 86.27812 672.54614Q86.52812 672.8899 86.95 672.8899Q87.3875 672.8899 87.6375 672.54614Q87.95 672.06177 87.95 670.67114Q87.95 669.2649 87.6375 668.79614Q87.3875 668.43677 86.95 668.43677Q86.52812 668.43677 86.27812 668.79614Q85.96562 669.2649 85.96562 670.67114ZM89.04375 682.0149L87.0125 682.0149L94.6375 666.9055L96.60625 666.9055L89.04375 682.0149ZM93.48125 678.24927Q93.48125 676.3274 94.325 675.4055Q95.16875 674.468 96.6375 674.468Q98.10625 674.468 98.95 675.4055Q99.79375 676.3274 99.79375 678.24927Q99.79375 680.18677 98.95 681.12427Q98.10625 682.04614 96.66875 682.04614Q95.16875 682.04614 94.325 681.12427Q93.48125 680.18677 93.48125 678.24927ZM95.62187 678.24927Q95.62187 679.6399 95.93437 680.10864Q96.18437 680.468 96.60625 680.468Q97.05937 680.468 97.29375 680.12427Q97.60625 679.6399 97.60625 678.24927Q97.60625 676.843 97.29375 676.37427Q97.05937 676.0149 96.60625 676.0149Q96.16875 676.0149 95.93437 676.37427Q95.62187 676.843 95.62187 678.24927Z" fill-rule="nonzero"/><path stroke="#757575" stroke-width="1.0" stroke-linecap="butt" d="M54.95 660.968L172.95 660.968L216.85817 660.00525" fill-rule="nonzero"/><path fill="#9e9e9e" d="M218.85817 660.00525C218.85817 658.9007 217.96274 658.00525 216.85817 658.00525C215.7536 658.00525 214.85817 658.9007 214.85817 660.00525C214.85817 661.10986 215.7536 662.00525 216.85817 662.00525C217.96274 662.00525 218.85817 661.10986 218.85817 660.00525" fill-rule="nonzero"/><path fill="#000000" d="M56.41875 705.468L56.41875 691.1555L62.496876 691.1555Q64.79375 691.1555 65.825 691.54614Q66.87187 691.92114 67.49687 692.9055Q68.12187 693.8899 68.12187 695.17114Q68.12187 696.7805 67.16875 697.8274Q66.23125 698.87427 64.34062 699.1555Q65.27812 699.7024 65.8875 700.35864Q66.49687 700.99927 67.54375 702.67114L69.29375 705.468L65.825 705.468L63.746876 702.35864Q62.621876 700.68677 62.215626 700.24927Q61.809376 699.81177 61.340626 699.6555Q60.8875 699.48364 59.8875 699.48364L59.309376 699.48364L59.309376 705.468L56.41875 705.468ZM59.309376 697.2024L61.45 697.2024Q63.528126 697.2024 64.04375 697.0305Q64.55937 696.85864 64.85625 696.43677Q65.15312 695.99927 65.15312 695.343Q65.15312 694.62427 64.7625 694.18677Q64.37187 693.73364 63.66875 693.62427Q63.325 693.5774 61.559376 693.5774L59.309376 693.5774L59.309376 697.2024ZM76.3875 702.17114L79.12187 702.62427Q78.60625 704.12427 77.46562 704.92114Q76.325 705.7024 74.62187 705.7024Q71.90312 705.7024 70.60625 703.93677Q69.59062 702.5149 69.59062 700.35864Q69.59062 697.7805 70.93437 696.3274Q72.27812 694.85864 74.34062 694.85864Q76.65312 694.85864 77.98125 696.3899Q79.325 697.92114 79.27812 701.0774L72.40312 701.0774Q72.43437 702.29614 73.05937 702.98364Q73.7 703.6555 74.6375 703.6555Q75.29375 703.6555 75.73125 703.31177Q76.16875 702.9524 76.3875 702.17114ZM76.54375 699.3899Q76.5125 698.2024 75.91875 697.593Q75.34062 696.968 74.5125 696.968Q73.60625 696.968 73.02812 697.60864Q72.43437 698.2649 72.45 699.3899L76.54375 699.3899ZM84.23125 705.468L80.05937 695.093L82.93437 695.093L84.8875 700.3899L85.46562 702.1555Q85.68437 701.48364 85.74687 701.2649Q85.87187 700.8274 86.02812 700.3899L88.0125 695.093L90.825 695.093L86.71562 705.468L84.23125 705.468ZM91.74687 700.1399Q91.74687 698.7649 92.41875 697.48364Q93.10625 696.2024 94.34062 695.5305Q95.575 694.85864 97.09062 694.85864Q99.45 694.85864 100.95 696.3899Q102.45 697.92114 102.45 700.24927Q102.45 702.60864 100.93437 704.1555Q99.41875 705.7024 97.10625 705.7024Q95.68437 705.7024 94.3875 705.06177Q93.10625 704.4055 92.41875 703.17114Q91.74687 701.92114 91.74687 700.1399ZM94.55937 700.2805Q94.55937 701.8274 95.29375 702.6555Q96.02812 703.468 97.10625 703.468Q98.18437 703.468 98.90312 702.6555Q99.6375 701.8274 99.6375 700.2649Q99.6375 698.73364 98.90312 697.92114Q98.18437 697.093 97.10625 697.093Q96.02812 697.093 95.29375 697.92114Q94.55937 698.73364 94.55937 700.2805ZM104.3875 705.468L104.3875 691.1555L107.1375 691.1555L107.1375 705.468L104.3875 705.468ZM117.21562 705.468L117.21562 703.92114Q116.65312 704.74927 115.71562 705.23364Q114.79375 705.7024 113.77812 705.7024Q112.73125 705.7024 111.90312 705.24927Q111.075 704.7805 110.7 703.9524Q110.325 703.12427 110.325 701.6555L110.325 695.093L113.075 695.093L113.075 699.85864Q113.075 702.04614 113.21562 702.54614Q113.37187 703.0305 113.7625 703.3274Q114.16875 703.60864 114.79375 703.60864Q115.49687 703.60864 116.04375 703.23364Q116.60625 702.843 116.80937 702.2805Q117.0125 701.7024 117.0125 699.468L117.0125 695.093L119.7625 695.093L119.7625 705.468L117.21562 705.468ZM127.1375 695.093L127.1375 697.2805L125.2625 697.2805L125.2625 701.468Q125.2625 702.73364 125.30937 702.9524Q125.37187 703.1555 125.55937 703.29614Q125.7625 703.42114 126.02812 703.42114Q126.40312 703.42114 127.1375 703.1555L127.37187 705.29614Q126.40312 705.7024 125.2 705.7024Q124.45 705.7024 123.85625 705.4524Q123.2625 705.2024 122.98125 704.81177Q122.71562 704.4055 122.60625 703.73364Q122.5125 703.2649 122.5125 701.81177L122.5125 697.2805L121.24687 697.2805L121.24687 695.093L122.5125 695.093L122.5125 693.0305L125.2625 691.43677L125.2625 695.093L127.1375 695.093ZM129.3875 693.68677L129.3875 691.1555L132.1375 691.1555L132.1375 693.68677L129.3875 693.68677ZM129.3875 705.468L129.3875 695.093L132.1375 695.093L132.1375 705.468L129.3875 705.468ZM134.74687 700.1399Q134.74687 698.7649 135.41875 697.48364Q136.10625 696.2024 137.34062 695.5305Q138.575 694.85864 140.09062 694.85864Q142.45 694.85864 143.95 696.3899Q145.45 697.92114 145.45 700.24927Q145.45 702.60864 143.93437 704.1555Q142.41875 705.7024 140.10625 705.7024Q138.68437 705.7024 137.3875 705.06177Q136.10625 704.4055 135.41875 703.17114Q134.74687 701.92114 134.74687 700.1399ZM137.55937 700.2805Q137.55937 701.8274 138.29375 702.6555Q139.02812 703.468 140.10625 703.468Q141.18437 703.468 141.90312 702.6555Q142.6375 701.8274 142.6375 700.2649Q142.6375 698.73364 141.90312 697.92114Q141.18437 697.093 140.10625 697.093Q139.02812 697.093 138.29375 697.92114Q137.55937 698.73364 137.55937 700.2805ZM156.825 705.468L154.075 705.468L154.075 700.17114Q154.075 698.49927 153.90312 698.0149Q153.73125 697.5149 153.325 697.24927Q152.93437 696.968 152.37187 696.968Q151.66875 696.968 151.09062 697.35864Q150.52812 697.74927 150.30937 698.3899Q150.10625 699.0305 150.10625 700.7649L150.10625 705.468L147.37187 705.468L147.37187 695.093L149.91875 695.093L149.91875 696.62427Q151.27812 694.85864 153.34062 694.85864Q154.24687 694.85864 154.99687 695.18677Q155.74687 695.5149 156.12187 696.0305Q156.5125 696.5305 156.66875 697.18677Q156.825 697.8274 156.825 699.0149L156.825 705.468Z" fill-rule="nonzero"/><path fill="#9e9e9e" d="M60.434376 718.093Q62.5125 718.093 63.684376 719.5774Q65.09062 721.3274 65.09062 725.4055Q65.09062 729.468 63.684376 731.24927Q62.5125 732.718 60.434376 732.718Q58.35625 732.718 57.075 731.10864Q55.79375 729.49927 55.79375 725.37427Q55.79375 721.3274 57.2 719.56177Q58.35625 718.093 60.434376 718.093ZM60.434376 720.37427Q59.934376 720.37427 59.54375 720.68677Q59.153126 720.99927 58.95 721.8274Q58.66875 722.8899 58.66875 725.4055Q58.66875 727.92114 58.91875 728.87427Q59.16875 729.81177 59.54375 730.12427Q59.934376 730.43677 60.434376 730.43677Q60.934376 730.43677 61.325 730.12427Q61.715626 729.79614 61.934376 728.98364Q62.215626 727.92114 62.215626 725.4055Q62.215626 722.8899 61.965626 721.9524Q61.715626 720.99927 61.325 720.68677Q60.934376 720.37427 60.434376 720.37427ZM67.3875 732.468L67.3875 729.718L70.1375 729.718L70.1375 732.468L67.3875 732.468ZM75.15312 724.74927Q74.09062 724.29614 73.60625 723.5149Q73.12187 722.718 73.12187 721.7805Q73.12187 720.18677 74.23125 719.1399Q75.35625 718.093 77.41875 718.093Q79.46562 718.093 80.59062 719.1399Q81.71562 720.18677 81.71562 721.7805Q81.71562 722.7805 81.2 723.56177Q80.68437 724.3274 79.74687 724.74927Q80.93437 725.218 81.54375 726.1399Q82.16875 727.06177 82.16875 728.2649Q82.16875 730.23364 80.90312 731.48364Q79.65312 732.718 77.54375 732.718Q75.59062 732.718 74.29375 731.7024Q72.7625 730.48364 72.7625 728.37427Q72.7625 727.218 73.34062 726.24927Q73.91875 725.2649 75.15312 724.74927ZM75.71562 721.98364Q75.71562 722.79614 76.18437 723.2649Q76.65312 723.718 77.41875 723.718Q78.2 723.718 78.66875 723.2649Q79.1375 722.79614 79.1375 721.968Q79.1375 721.2024 78.66875 720.73364Q78.21562 720.2649 77.45 720.2649Q76.65312 720.2649 76.18437 720.73364Q75.71562 721.2024 75.71562 721.98364ZM75.46562 728.10864Q75.46562 729.24927 76.04375 729.8899Q76.62187 730.5149 77.49687 730.5149Q78.34062 730.5149 78.90312 729.9055Q79.46562 729.29614 79.46562 728.1399Q79.46562 727.1399 78.8875 726.5305Q78.325 725.92114 77.46562 725.92114Q76.45 725.92114 75.95 726.60864Q75.46562 727.29614 75.46562 728.10864ZM83.825 721.68677Q83.825 719.7649 84.66875 718.843Q85.5125 717.9055 86.95 717.9055Q88.45 717.9055 89.29375 718.8274Q90.1375 719.74927 90.1375 721.68677Q90.1375 723.60864 89.29375 724.54614Q88.45 725.468 86.99687 725.468Q85.5125 725.468 84.66875 724.54614Q83.825 723.62427 83.825 721.68677ZM85.96562 721.67114Q85.96562 723.06177 86.27812 723.54614Q86.52812 723.8899 86.95 723.8899Q87.3875 723.8899 87.6375 723.54614Q87.95 723.06177 87.95 721.67114Q87.95 720.2649 87.6375 719.79614Q87.3875 719.43677 86.95 719.43677Q86.52812 719.43677 86.27812 719.79614Q85.96562 720.2649 85.96562 721.67114ZM89.04375 733.0149L87.0125 733.0149L94.6375 717.9055L96.60625 717.9055L89.04375 733.0149ZM93.48125 729.24927Q93.48125 727.3274 94.325 726.4055Q95.16875 725.468 96.6375 725.468Q98.10625 725.468 98.95 726.4055Q99.79375 727.3274 99.79375 729.24927Q99.79375 731.18677 98.95 732.12427Q98.10625 733.04614 96.66875 733.04614Q95.16875 733.04614 94.325 732.12427Q93.48125 731.18677 93.48125 729.24927ZM95.62187 729.24927Q95.62187 730.6399 95.93437 731.10864Q96.18437 731.468 96.60625 731.468Q97.05937 731.468 97.29375 731.12427Q97.60625 730.6399 97.60625 729.24927Q97.60625 727.843 97.29375 727.37427Q97.05937 727.0149 96.60625 727.0149Q96.16875 727.0149 95.93437 727.37427Q95.62187 727.843 95.62187 729.24927Z" fill-rule="nonzero"/><path stroke="#757575" stroke-width="1.0" stroke-linecap="butt" d="M54.95 711.968L172.95 711.968L222.90456 682.5298" fill-rule="nonzero"/><path fill="#9e9e9e" d="M224.90456 682.5298C224.90456 681.42523 224.00912 680.5298 222.90456 680.5298C221.79999 680.5298 220.90456 681.42523 220.90456 682.5298C220.90456 683.63434 221.79999 684.5298 222.90456 684.5298C224.00912 684.5298 224.90456 683.63434 224.90456 682.5298" fill-rule="nonzero"/><path fill="#000000" d="M1240.5032 819.6972L1240.5032 805.3847L1245.1438 805.3847Q1247.7844 805.3847 1248.5813 805.5878Q1249.8157 805.91595 1250.6438 806.9941Q1251.4719 808.0722 1251.4719 809.79095Q1251.4719 811.10345 1250.9875 812.0097Q1250.5188 812.9003 1249.7688 813.41595Q1249.0344 813.9316 1248.2844 814.0878Q1247.2375 814.29095 1245.2844 814.29095L1243.3938 814.29095L1243.3938 819.6972L1240.5032 819.6972ZM1243.3938 807.8066L1243.3938 811.8691L1244.9719 811.8691Q1246.6907 811.8691 1247.2688 811.6503Q1247.8469 811.41595 1248.1594 810.9472Q1248.4875 810.4628 1248.4875 809.8222Q1248.4875 809.04095 1248.0344 808.54095Q1247.5813 808.0253 1246.8782 807.9003Q1246.3625 807.8066 1244.8 807.8066L1243.3938 807.8066ZM1253.4875 819.6972L1253.4875 805.3847L1256.2375 805.3847L1256.2375 819.6972L1253.4875 819.6972ZM1261.5344 812.4941L1259.05 812.04095Q1259.4719 810.54095 1260.4875 809.8222Q1261.5188 809.0878 1263.5344 809.0878Q1265.3782 809.0878 1266.2688 809.5253Q1267.175 809.9628 1267.5344 810.6347Q1267.9094 811.29095 1267.9094 813.0878L1267.8782 816.29095Q1267.8782 817.6503 1268.0032 818.3066Q1268.1438 818.9472 1268.5032 819.6972L1265.7844 819.6972Q1265.675 819.41595 1265.5188 818.8847Q1265.4563 818.6347 1265.425 818.5566Q1264.7219 819.2441 1263.9094 819.5878Q1263.1125 819.9316 1262.2063 819.9316Q1260.6125 819.9316 1259.6907 819.0722Q1258.7688 818.1972 1258.7688 816.8691Q1258.7688 815.97845 1259.175 815.29095Q1259.5969 814.60345 1260.3469 814.2441Q1261.1125 813.8691 1262.55 813.60345Q1264.4719 813.2441 1265.2063 812.9316L1265.2063 812.6503Q1265.2063 811.8691 1264.8157 811.54095Q1264.425 811.1972 1263.3469 811.1972Q1262.6125 811.1972 1262.1907 811.47845Q1261.7844 811.7597 1261.5344 812.4941ZM1265.2063 814.7128Q1264.675 814.8847 1263.5344 815.1347Q1262.3938 815.3847 1262.05 815.6191Q1261.5032 815.9941 1261.5032 816.5878Q1261.5032 817.1503 1261.925 817.5722Q1262.3625 817.9941 1263.0344 817.9941Q1263.7688 817.9941 1264.4407 817.5097Q1264.9407 817.1347 1265.0969 816.60345Q1265.2063 816.2441 1265.2063 815.2597L1265.2063 814.7128ZM1279.925 819.6972L1277.175 819.6972L1277.175 814.4003Q1277.175 812.72845 1277.0032 812.2441Q1276.8313 811.7441 1276.425 811.47845Q1276.0344 811.1972 1275.4719 811.1972Q1274.7688 811.1972 1274.1907 811.5878Q1273.6282 811.97845 1273.4094 812.6191Q1273.2063 813.2597 1273.2063 814.9941L1273.2063 819.6972L1270.4719 819.6972L1270.4719 809.3222L1273.0188 809.3222L1273.0188 810.85345Q1274.3782 809.0878 1276.4407 809.0878Q1277.3469 809.0878 1278.0969 809.41595Q1278.8469 809.7441 1279.2219 810.2597Q1279.6125 810.7597 1279.7688 811.41595Q1279.925 812.0566 1279.925 813.2441L1279.925 819.6972ZM1288.4875 816.4003L1291.2219 816.85345Q1290.7063 818.35345 1289.5657 819.1503Q1288.425 819.9316 1286.7219 819.9316Q1284.0032 819.9316 1282.7063 818.16595Q1281.6907 816.7441 1281.6907 814.5878Q1281.6907 812.0097 1283.0344 810.5566Q1284.3782 809.0878 1286.4407 809.0878Q1288.7532 809.0878 1290.0813 810.6191Q1291.425 812.1503 1291.3782 815.3066L1284.5032 815.3066Q1284.5344 816.5253 1285.1594 817.2128Q1285.8 817.8847 1286.7375 817.8847Q1287.3938 817.8847 1287.8313 817.54095Q1288.2688 817.1816 1288.4875 816.4003ZM1288.6438 813.6191Q1288.6125 812.4316 1288.0188 811.8222Q1287.4407 811.1972 1286.6125 811.1972Q1285.7063 811.1972 1285.1282 811.8378Q1284.5344 812.4941 1284.55 813.6191L1288.6438 813.6191Z" fill-rule="nonzero"/><path fill="#9e9e9e" d="M1235.8938 835.1191L1235.8938 832.5722L1245.2844 832.5722L1245.2844 834.5722Q1244.1282 835.7128 1242.925 837.85345Q1241.7219 839.9941 1241.0813 842.4003Q1240.4563 844.8066 1240.4719 846.6972L1237.8313 846.6972Q1237.8938 843.72845 1239.05 840.6503Q1240.2063 837.5566 1242.1438 835.1191L1235.8938 835.1191ZM1251.5344 832.3222Q1253.6125 832.3222 1254.7844 833.8066Q1256.1907 835.5566 1256.1907 839.6347Q1256.1907 843.6972 1254.7844 845.47845Q1253.6125 846.9472 1251.5344 846.9472Q1249.4563 846.9472 1248.175 845.3378Q1246.8938 843.72845 1246.8938 839.60345Q1246.8938 835.5566 1248.3 833.79095Q1249.4563 832.3222 1251.5344 832.3222ZM1251.5344 834.60345Q1251.0344 834.60345 1250.6438 834.91595Q1250.2532 835.22845 1250.05 836.0566Q1249.7688 837.1191 1249.7688 839.6347Q1249.7688 842.1503 1250.0188 843.10345Q1250.2688 844.04095 1250.6438 844.35345Q1251.0344 844.66595 1251.5344 844.66595Q1252.0344 844.66595 1252.425 844.35345Q1252.8157 844.0253 1253.0344 843.2128Q1253.3157 842.1503 1253.3157 839.6347Q1253.3157 837.1191 1253.0657 836.1816Q1252.8157 835.22845 1252.425 834.91595Q1252.0344 834.60345 1251.5344 834.60345ZM1258.4875 846.6972L1258.4875 843.9472L1261.2375 843.9472L1261.2375 846.6972L1258.4875 846.6972ZM1268.5344 832.3222Q1270.6125 832.3222 1271.7844 833.8066Q1273.1907 835.5566 1273.1907 839.6347Q1273.1907 843.6972 1271.7844 845.47845Q1270.6125 846.9472 1268.5344 846.9472Q1266.4563 846.9472 1265.175 845.3378Q1263.8938 843.72845 1263.8938 839.60345Q1263.8938 835.5566 1265.3 833.79095Q1266.4563 832.3222 1268.5344 832.3222ZM1268.5344 834.60345Q1268.0344 834.60345 1267.6438 834.91595Q1267.2532 835.22845 1267.05 836.0566Q1266.7688 837.1191 1266.7688 839.6347Q1266.7688 842.1503 1267.0188 843.10345Q1267.2688 844.04095 1267.6438 844.35345Q1268.0344 844.66595 1268.5344 844.66595Q1269.0344 844.66595 1269.425 844.35345Q1269.8157 844.0253 1270.0344 843.2128Q1270.3157 842.1503 1270.3157 839.6347Q1270.3157 837.1191 1270.0657 836.1816Q1269.8157 835.22845 1269.425 834.91595Q1269.0344 834.60345 1268.5344 834.60345ZM1274.925 835.91595Q1274.925 833.9941 1275.7688 833.0722Q1276.6125 832.1347 1278.05 832.1347Q1279.55 832.1347 1280.3938 833.0566Q1281.2375 833.97845 1281.2375 835.91595Q1281.2375 837.8378 1280.3938 838.7753Q1279.55 839.6972 1278.0969 839.6972Q1276.6125 839.6972 1275.7688 838.7753Q1274.925 837.85345 1274.925 835.91595ZM1277.0657 835.9003Q1277.0657 837.29095 1277.3782 837.7753Q1277.6282 838.1191 1278.05 838.1191Q1278.4875 838.1191 1278.7375 837.7753Q1279.05 837.29095 1279.05 835.9003Q1279.05 834.4941 1278.7375 834.0253Q1278.4875 833.66595 1278.05 833.66595Q1277.6282 833.66595 1277.3782 834.0253Q1277.0657 834.4941 1277.0657 835.9003ZM1280.1438 847.2441L1278.1125 847.2441L1285.7375 832.1347L1287.7063 832.1347L1280.1438 847.2441ZM1284.5813 843.47845Q1284.5813 841.5566 1285.425 840.6347Q1286.2688 839.6972 1287.7375 839.6972Q1289.2063 839.6972 1290.05 840.6347Q1290.8938 841.5566 1290.8938 843.47845Q1290.8938 845.41595 1290.05 846.35345Q1289.2063 847.2753 1287.7688 847.2753Q1286.2688 847.2753 1285.425 846.35345Q1284.5813 845.41595 1284.5813 843.47845ZM1286.7219 843.47845Q1286.7219 844.8691 1287.0344 845.3378Q1287.2844 845.6972 1287.7063 845.6972Q1288.1594 845.6972 1288.3938 845.35345Q1288.7063 844.8691 1288.7063 843.47845Q1288.7063 842.0722 1288.3938 841.60345Q1288.1594 841.2441 1287.7063 841.2441Q1287.2688 841.2441 1287.0344 841.60345Q1286.7219 842.0722 1286.7219 843.47845Z" fill-rule="nonzero"/><path stroke="#757575" stroke-width="1.0" stroke-linecap="butt" d="M1292.05 826.1972L1174.05 826.1972L1053.1997 826.1972" fill-rule="nonzero"/><path fill="#9e9e9e" d="M1055.1997 826.1972C1055.1997 825.09265 1054.3042 824.1972 1053.1997 824.1972C1052.0951 824.1972 1051.1997 825.09265 1051.1997 826.1972C1051.1997 827.30176 1052.0951 828.1972 1053.1997 828.1972C1054.3042 828.1972 1055.1997 827.30176 1055.1997 826.1972" fill-rule="nonzero"/></svg>